<svg width="120" height="120" viewBox="0 0 120 120" fill="none" xmlns="http://www.w3.org/2000/svg">
<rect y="-0.00616455" width="120" height="120" rx="10" fill="white"/>
<path d="M14.6013 90V36.64H34.3613C38.6813 36.64 42.1746 37.2267 44.8413 38.4C47.5613 39.5733 49.5613 41.2533 50.8413 43.44C52.1213 45.5733 52.7613 48.1333 52.7613 51.12C52.7613 53.4667 52.3079 55.36 51.4013 56.8C50.4946 58.1867 49.4013 59.3067 48.1213 60.16C46.8946 61.0133 45.7213 61.8133 44.6013 62.56L43.5613 60.72C45.5879 61.0933 47.5346 61.84 49.4012 62.96C51.2679 64.0267 52.7879 65.52 53.9613 67.44C55.1879 69.3067 55.8013 71.6533 55.8013 74.48C55.8013 78.1067 54.9746 81.0667 53.3213 83.36C51.6679 85.6533 49.3479 87.3333 46.3613 88.4C43.4279 89.4667 40.0413 90 36.2013 90H14.6013ZM23.4813 82.64H36.1213C37.9879 82.64 39.7213 82.4267 41.3213 82C42.9746 81.52 44.2813 80.6667 45.2413 79.44C46.2546 78.16 46.7613 76.3733 46.7613 74.08C46.7613 72.32 46.4413 70.9067 45.8013 69.84C45.1613 68.7733 44.3079 67.9733 43.2413 67.44C42.2279 66.8533 41.0546 66.48 39.7213 66.32C38.4413 66.1067 37.1613 66 35.8813 66H23.4813V82.64ZM23.4013 58.88H35.4013C36.7879 58.88 38.1213 58.72 39.4013 58.4C40.6813 58.0267 41.7479 57.3333 42.6013 56.32C43.4546 55.3067 43.8813 53.8133 43.8813 51.84C43.8813 48.8533 43.0279 46.8267 41.3213 45.76C39.6679 44.64 37.4546 44.08 34.6813 44.08H23.4013V58.88ZM66.32 90V36.64H86.08C90.4 36.64 93.8933 37.2267 96.56 38.4C99.28 39.5733 101.28 41.2533 102.56 43.44C103.84 45.5733 104.48 48.1333 104.48 51.12C104.48 53.4667 104.027 55.36 103.12 56.8C102.213 58.1867 101.12 59.3067 99.84 60.16C98.6133 61.0133 97.44 61.8133 96.32 62.56L95.28 60.72C97.3067 61.0933 99.2533 61.84 101.12 62.96C102.987 64.0267 104.507 65.52 105.68 67.44C106.907 69.3067 107.52 71.6533 107.52 74.48C107.52 78.1067 106.693 81.0667 105.04 83.36C103.387 85.6533 101.067 87.3333 98.08 88.4C95.1467 89.4667 91.76 90 87.92 90H66.32ZM75.2 82.64H87.84C89.7067 82.64 91.44 82.4267 93.04 82C94.6933 81.52 96 80.6667 96.96 79.44C97.9733 78.16 98.48 76.3733 98.48 74.08C98.48 72.32 98.16 70.9067 97.52 69.84C96.88 68.7733 96.0267 67.9733 94.96 67.44C93.9467 66.8533 92.7733 66.48 91.44 66.32C90.16 66.1067 88.88 66 87.6 66H75.2V82.64ZM75.12 58.88H87.12C88.5067 58.88 89.84 58.72 91.12 58.4C92.4 58.0267 93.4667 57.3333 94.32 56.32C95.1733 55.3067 95.6 53.8133 95.6 51.84C95.6 48.8533 94.7467 46.8267 93.04 45.76C91.3867 44.64 89.1733 44.08 86.4 44.08H75.12V58.88Z" fill="#2D4F8E"/>
</svg>
